/* XPM */
static char * nsnake16_xpm[] = {
"16 16 107 2",
"  	c None",
". 	c #000000",
"+ 	c #0C0000",
"@ 	c #800000",
"# 	c #7C0000",
"$ 	c #0E0000",
"% 	c #004000",
"& 	c #006A00",
"* 	c #000300",
"= 	c #560000",
"- 	c #420000",
"; 	c #2F0000",
"> 	c #1E0000",
", 	c #002900",
"' 	c #006C00",
") 	c #003200",
"! 	c #005D00",
"~ 	c #007E00",
"{ 	c #009100",
"] 	c #002C00",
"^ 	c #190000",
"/ 	c #840000",
"( 	c #830000",
"_ 	c #160000",
": 	c #007000",
"< 	c #007D00",
"[ 	c #000700",
"} 	c #007600",
"| 	c #1D0000",
"1 	c #2D0000",
"2 	c #410000",
"3 	c #550000",
"4 	c #007300",
"5 	c #006000",
"6 	c #007F00",
"7 	c #008900",
"8 	c #002E00",
"9 	c #005F00",
"0 	c #002D00",
"a 	c #008A00",
"b 	c #100000",
"c 	c #7E0000",
"d 	c #7F0000",
"e 	c #0B0000",
"f 	c #002A00",
"g 	c #007900",
"h 	c #000100",
"i 	c #003400",
"j 	c #000500",
"k 	c #0F0000",
"l 	c #003900",
"m 	c #007100",
"n 	c #323232",
"o 	c #252525",
"p 	c #040404",
"q 	c #4B4B4B",
"r 	c #5C5C5C",
"s 	c #161616",
"t 	c #010101",
"u 	c #0F0F0F",
"v 	c #4F4F4F",
"w 	c #0C0C0C",
"x 	c #525252",
"y 	c #B8B8B8",
"z 	c #AEAEAE",
"A 	c #646464",
"B 	c #8D8D8D",
"C 	c #B0B0B0",
"D 	c #D2D2D2",
"E 	c #313131",
"F 	c #B9B9B9",
"G 	c #949494",
"H 	c #868686",
"I 	c #727272",
"J 	c #B7B7B7",
"K 	c #CCCCCC",
"L 	c #444444",
"M 	c #A4A4A4",
"N 	c #0B0B0B",
"O 	c #787878",
"P 	c #464646",
"Q 	c #222222",
"R 	c #C7C7C7",
"S 	c #B6B6B6",
"T 	c #020202",
"U 	c #141414",
"V 	c #282828",
"W 	c #4D4D4D",
"X 	c #8B8B8B",
"Y 	c #A7A7A7",
"Z 	c #A3A3A3",
"` 	c #AAAAAA",
" .	c #B1B1B1",
"..	c #858585",
"+.	c #9D9D9D",
"@.	c #C3C3C3",
"#.	c #C9C9C9",
"$.	c #8F8F8F",
"%.	c #353535",
"&.	c #232323",
"*.	c #131313",
"=.	c #535353",
"-.	c #494949",
";.	c #202020",
">.	c #5F5F5F",
",.	c #434343",
"'.	c #070707",
". . . . . . . . . . . . . . . . ",
". . . . . . . . . . . . . . . . ",
". . . . . . . . . . . . . . . . ",
". . . . . . . . . . . . . . . . ",
". . . . . . . . . . . . . . . . ",
"+ @ # $ . % & * . . . . . . . . ",
"= - ; > , ' ) ! ~ { ] ] { ~ . ~ ",
"^ / ( _ : ! ~ < ~ [ } } [ ~ . ~ ",
"| 1 2 3 4 5 < 6 7 8 9 5 0 a . 7 ",
"b c d e f g h . i & j j & i . i ",
". k k . . l m . . . . . . . . . ",
". n o p p q r . s t u . v v t w ",
"x y z A B C D E F G H I J K L M ",
"N O H . P o Q t R S T U V W . X ",
"Y Z ` L R  .I ..+.@.E #.` $.A  .",
"%.&.*.. =.-.. N T ;.. >.,.'.t V "};
